<svg width="12" height="16" viewBox="0 0 12 16" fill="none" xmlns="http://www.w3.org/2000/svg">
<path d="M10.9579 1.5743C10.7924 1.3133 10.5503 1.14338 10.2738 1.09451C8.10137 0.70912 5.83457 1.30997 4.02091 2.74713C3.4456 1.94303 2.76923 1.14005 2.00955 0.354828C1.492 -0.179386 0.802296 -0.0516633 0.38803 0.350386C-0.0384531 0.763541 -0.192831 1.46879 0.338052 2.01633C1.15659 2.86153 1.82741 3.67562 2.38162 4.50082C1.36761 5.95797 0.770086 7.75942 0.652359 9.7219C0.555734 11.349 0.733436 12.6817 1.18213 13.6835C1.51421 14.4265 2.14949 15.0118 2.88029 15.2506C3.11908 15.3284 3.35786 15.3672 3.59332 15.3672C3.96871 15.3672 4.33522 15.2684 4.6784 15.0729C5.5769 14.5609 6.15221 13.5458 6.43653 11.9687C6.67421 10.6526 6.652 9.27987 6.3699 7.89047C6.15999 6.85425 5.78793 5.80803 5.2626 4.77626C6.56204 3.63453 8.20355 3.11253 9.69069 3.37464C10.3548 3.4957 10.9535 3.14363 11.1179 2.54611C11.2034 2.23624 11.1412 1.86307 10.9568 1.57208L10.9579 1.5743ZM3.84876 12.544C3.69549 12.9016 3.59554 12.9994 3.56777 13.0149C3.51446 13.0005 3.38118 12.8561 3.30566 12.6862C2.98469 11.9598 2.96692 10.9902 2.99468 10.0518C3.02689 8.96445 3.25901 7.91713 3.66884 6.98864C4.07866 8.12592 4.72172 10.5116 3.84876 12.544Z" fill="url(#paint0_linear_2434_206)"/>
<defs>
<linearGradient id="paint0_linear_2434_206" x1="-21.176" y1="7.45732" x2="63.4597" y2="7.45732" gradientUnits="userSpaceOnUse">
<stop stop-color="#EF8D2F"/>
<stop offset="0.66" stop-color="#E3355F"/>
<stop offset="1" stop-color="#DE0D76"/>
</linearGradient>
</defs>
</svg>
