<svg width="84" height="55" viewBox="0 0 84 55" fill="none" xmlns="http://www.w3.org/2000/svg">
<path d="M83.2896 47.504C83.6801 47.1135 83.6801 46.4803 83.2896 46.0898L76.9257 39.7258C76.5351 39.3353 75.902 39.3353 75.5114 39.7258C75.1209 40.1163 75.1209 40.7495 75.5114 41.14L81.1683 46.7969L75.5114 52.4537C75.1209 52.8443 75.1209 53.4774 75.5114 53.8679C75.902 54.2585 76.5351 54.2585 76.9257 53.8679L83.2896 47.504ZM0 1V2H34.877V1V0H0V1ZM45.877 12H44.877V35.7969H45.877H46.877V12H45.877ZM56.877 46.7969V47.7969H82.5825V46.7969V45.7969H56.877V46.7969ZM45.877 35.7969H44.877C44.877 42.4243 50.2495 47.7969 56.877 47.7969V46.7969V45.7969C51.3541 45.7969 46.877 41.3197 46.877 35.7969H45.877ZM34.877 1V2C40.3998 2 44.877 6.47715 44.877 12H45.877H46.877C46.877 5.37258 41.5044 0 34.877 0V1Z" fill="#828282"/>
</svg>
