<svg width="60" height="97" viewBox="0 0 60 97" fill="none" xmlns="http://www.w3.org/2000/svg">
<path d="M59.5523 88.2021C59.9428 88.5926 59.9428 89.2258 59.5523 89.6163L53.1884 95.9802C52.7978 96.3708 52.1647 96.3708 51.7741 95.9802C51.3836 95.5897 51.3836 94.9566 51.7741 94.566L57.431 88.9092L51.7741 83.2523C51.3836 82.8618 51.3836 82.2286 51.7741 81.8381C52.1647 81.4476 52.7978 81.4476 53.1884 81.8381L59.5523 88.2021ZM0 0.999931V-6.86646e-05H17.6085V0.999931V1.99993H0V0.999931ZM28.6085 11.9999H29.6085V77.9092H28.6085H27.6085V11.9999H28.6085ZM39.6085 88.9092V87.9092H58.8452V88.9092V89.9092H39.6085V88.9092ZM28.6085 77.9092H29.6085C29.6085 83.432 34.0857 87.9092 39.6085 87.9092V88.9092V89.9092C32.9811 89.9092 27.6085 84.5366 27.6085 77.9092H28.6085ZM17.6085 0.999931V-6.86646e-05C24.2359 -6.86646e-05 29.6085 5.37251 29.6085 11.9999H28.6085H27.6085C27.6085 6.47709 23.1314 1.99993 17.6085 1.99993V0.999931Z" fill="#828282"/>
</svg>
